#!OML:ASF H:\Dans Jumps\Project 1\Capture day 1\Session 1\subject.ASF
:FULLY-SPECIFIED
:DEGREES
544
root 0.33515 17.76 -2.96587 8.13168 -0.158129 -1.34822
lowerback 1.13796 -0.428691 -0.233707
upperback 3.34674 -0.605295 1.53623
thorax 2.8162 -0.331222 1.70092
lowerneck -12.7815 0.217325 -2.04759
upperneck 35.6067 0.610141 0.785597
head 14.3344 0.0884605 0.778226
rclavicle 2.6339e-015 -6.95746e-015
rhumerus -25.7635 -13.7652 -80.5599
rradius 23.2251
rwrist 33.4836
rhand -18.876 -26.5144
rfingers 7.12502
rthumb 7.42486 -56.3641
lclavicle 2.6339e-015 -6.95746e-015
lhumerus -24.3499 -5.49342 91.5592
lradius 18.0116
lwrist 10.2826
lhand -25.0812 -2.95917
lfingers 7.12502
lthumb 1.43313 27.0158
rfemur -18.4552 -1.18866 19.5236
rtibia 23.1477
rfoot -11.7646 -0.710357
rtoes 14.7756
lfemur -16.7745 6.96873 -17.4581
ltibia 20.0443
lfoot -8.70075 3.14865
ltoes 2.37364
545
root 0.335817 17.76 -2.96851 8.11345 -0.166612 -1.3325
lowerback 1.12039 -0.430725 -0.24811
upperback 3.35228 -0.608091 1.53554
thorax 2.83206 -0.333087 1.70812
lowerneck -12.7925 0.21919 -2.04189
upperneck 35.5926 0.616126 0.77248
head 14.3304 0.0901212 0.772718
rclavicle 5.76476e-015 2.18663e-015
rhumerus -25.7757 -13.7632 -80.5404
rradius 23.2396
rwrist 33.457
rhand -18.8669 -26.5305
rfingers 7.12502
rthumb 7.43358 -56.3799
lclavicle 5.76476e-015 2.18663e-015
lhumerus -24.3428 -5.52415 91.576
lradius 18.0141
lwrist 10.2953
lhand -25.1119 -3.01551
lfingers 7.12502
lthumb 1.40353 26.9596
rfemur -18.4494 -1.1781 19.5022
rtibia 23.1547
rfoot -11.7601 -0.720829
rtoes 14.7555
lfemur -16.7469 6.96924 -17.4752
ltibia 20.0164
lfoot -8.69218 3.14315
ltoes 2.40837
546
root 0.336586 17.7601 -2.97102 8.09536 -0.172842 -1.31982
lowerback 1.10123 -0.432478 -0.257477
upperback 3.35695 -0.610556 1.53574
thorax 2.84787 -0.334663 1.7134
lowerneck -12.806 0.222066 -2.03732
upperneck 35.582 0.622166 0.764555
head 14.3285 0.0923323 0.769588
rclavicle 8.00108e-015 -8.34896e-015
rhumerus -25.7881 -13.7701 -80.5183
rradius 23.2495
rwrist 33.4353
rhand -18.8646 -26.5469
rfingers 7.12502
rthumb 7.43583 -56.3963
lclavicle 8.00108e-015 -8.34896e-015
lhumerus -24.3401 -5.56749 91.5951
lradius 18.0178
lwrist 10.297
lhand -25.1257 -3.04916
lfingers 7.12502
lthumb 1.39013 26.9261
rfemur -18.44 -1.16852 19.4838
rtibia 23.1568
rfoot -11.7554 -0.731079
rtoes 14.7452
lfemur -16.7189 6.96905 -17.4888
ltibia 19.9878
lfoot -8.68403 3.13506
ltoes 2.45608
547
root 0.337484 17.7603 -2.97345 8.07871 -0.175374 -1.31059
lowerback 1.08132 -0.434672 -0.261424
upperback 3.35918 -0.613654 1.53764
thorax 2.86155 -0.336417 1.71738
lowerneck -12.8174 0.225023 -2.03331
upperneck 35.5712 0.627574 0.75902
head 14.3261 0.0945355 0.767425
rclavicle 5.96354e-015 -1.59028e-014
rhumerus -25.8016 -13.7828 -80.4931
rradius 23.2539
rwrist 33.4188
rhand -18.8679 -26.561
rfingers 7.12502
rthumb 7.43266 -56.4105
lclavicle 5.96354e-015 -1.59028e-014
lhumerus -24.3419 -5.61772 91.6156
lradius 18.0241
lwrist 10.2962
lhand -25.1149 -3.06505
lfingers 7.12502
lthumb 1.4006 26.9101
rfemur -18.4286 -1.16174 19.469
rtibia 23.1544
rfoot -11.7504 -0.741128
rtoes 14.7388
lfemur -16.6934 6.96717 -17.4988
ltibia 19.961
lfoot -8.67824 3.12553
ltoes 2.5152
548
root 0.338519 17.7605 -2.9757 8.06024 -0.175283 -1.30503
lowerback 1.0683 -0.438239 -0.261034
upperback 3.35685 -0.618566 1.54185
thorax 2.8667 -0.338935 1.72132
lowerneck -12.8256 0.231073 -2.02297
upperneck 35.5595 0.637238 0.749056
head 14.3225 0.0988243 0.762972
rclavicle 2.73329e-015 2.98177e-015
rhumerus -25.8192 -13.7935 -80.4658
rradius 23.2567
rwrist 33.4063
rhand -18.8708 -26.5794
rfingers 7.12502
rthumb 7.42986 -56.4289
lclavicle 2.73329e-015 2.98177e-015
lhumerus -24.3546 -5.68576 91.6423
lradius 18.0305
lwrist 10.2971
lhand -25.181 -3.18231
lfingers 7.12502
lthumb 1.33672 26.7933
rfemur -18.4109 -1.15632 19.4577
rtibia 23.147
rfoot -11.7444 -0.750871
rtoes 14.7364
lfemur -16.667 6.96527 -17.5048
ltibia 19.9374
lfoot -8.67597 3.11425
ltoes 2.57712
549
root 0.339448 17.7607 -2.97826 8.04245 -0.17214 -1.30615
lowerback 1.05463 -0.441732 -0.255438
upperback 3.35876 -0.623543 1.54906
thorax 2.87656 -0.341435 1.72543
lowerneck -12.8512 0.236488 -2.00644
upperneck 35.5459 0.646056 0.735112
head 14.322 0.103057 0.755744
rclavicle -8.94531e-015 3.57812e-015
rhumerus -25.8218 -13.8168 -80.4376
rradius 23.2509
rwrist 33.4049
rhand -18.8796 -26.5873
rfingers 7.12502
rthumb 7.42137 -56.4371
lclavicle -8.94531e-015 3.57812e-015
lhumerus -24.3537 -5.73822 91.6617
lradius 18.0468
lwrist 10.3074
lhand -25.2298 -3.27584
lfingers 7.12502
lthumb 1.28964 26.7
rfemur -18.3929 -1.14314 19.454
rtibia 23.1348
rfoot -11.7345 -0.770039
rtoes 14.7282
lfemur -16.646 6.96408 -17.5029
ltibia 19.9176
lfoot -8.67403 3.10166
ltoes 2.63348
550
root 0.340333 17.7608 -2.98069 8.02378 -0.168925 -1.31334
lowerback 1.04558 -0.446313 -0.247779
upperback 3.35997 -0.630049 1.56042
thorax 2.88318 -0.344689 1.73265
lowerneck -12.8746 0.243755 -1.99754
upperneck 35.5252 0.657429 0.727459
head 14.3177 0.108267 0.752762
rclavicle 4.32357e-015 -1.49089e-014
rhumerus -25.82 -13.8425 -80.4068
rradius 23.2376
rwrist 33.4128
rhand -18.8905 -26.583
rfingers 7.12502
rthumb 7.41089 -56.4332
lclavicle 4.32357e-015 -1.49089e-014
lhumerus -24.3533 -5.77801 91.6783
lradius 18.0713
lwrist 10.3357
lhand -25.3484 -3.47459
lfingers 7.12502
lthumb 1.17506 26.5019
rfemur -18.3713 -1.12351 19.4567
rtibia 23.1187
rfoot -11.7229 -0.794677
rtoes 14.7187
lfemur -16.6253 6.96454 -17.4937
ltibia 19.9004
lfoot -8.67343 3.08944
ltoes 2.67829
551
root 0.341258 17.761 -2.98308 8.00765 -0.16227 -1.32179
lowerback 1.03062 -0.451294 -0.238649
upperback 3.36326 -0.637199 1.57315
thorax 2.89531 -0.34828 1.74041
lowerneck -12.8959 0.248962 -1.99352
upperneck 35.4993 0.666322 0.721922
head 14.3104 0.112109 0.751068
rclavicle 4.96962e-016 7.15625e-015
rhumerus -25.8117 -13.8767 -80.3743
rradius 23.2213
rwrist 33.428
rhand -18.9047 -26.5729
rfingers 7.12502
rthumb 7.39714 -56.4235
lclavicle 4.96962e-016 7.15625e-015
lhumerus -24.3458 -5.79125 91.6867
lradius 18.1019
lwrist 10.3589
lhand -25.4518 -3.6393
lfingers 7.12502
lthumb 1.0752 26.3377
rfemur -18.3513 -1.10789 19.4611
rtibia 23.1004
rfoot -11.7098 -0.819253
rtoes 14.6989
lfemur -16.6086 6.96553 -17.484
ltibia 19.8846
lfoot -8.67424 3.07485
ltoes 2.72094
552
root 0.342289 17.7612 -2.98535 7.99368 -0.154254 -1.32608
lowerback 1.01114 -0.455251 -0.232053
upperback 3.36678 -0.642964 1.58426
thorax 2.91019 -0.351235 1.7479
lowerneck -12.9089 0.25041 -1.99623
upperneck 35.4683 0.669212 0.7224
head 14.2991 0.113359 0.752003
rclavicle 7.05686e-015 -6.16232e-015
rhumerus -25.8048 -13.9144 -80.3415
rradius 23.2071
rwrist 33.4414
rhand -18.9193 -26.5599
rfingers 7.12502
rthumb 7.38308 -56.4111
lclavicle 7.05686e-015 -6.16232e-015
lhumerus -24.3326 -5.78442 91.6872
lradius 18.1358
lwrist 10.3818
lhand -25.506 -3.71242
lfingers 7.12502
lthumb 1.02282 26.2649
rfemur -18.3326 -1.09854 19.4609
rtibia 23.0812
rfoot -11.6978 -0.840325
rtoes 14.6772
lfemur -16.5927 6.96591 -17.4801
ltibia 19.8667
lfoot -8.67397 3.06031
ltoes 2.74967
553
root 0.343514 17.7616 -2.98747 7.98301 -0.143885 -1.32443
lowerback 0.98742 -0.458577 -0.228097
upperback 3.36718 -0.647804 1.593
thorax 2.92419 -0.353742 1.75442
lowerneck -12.9063 0.247098 -2.00723
upperneck 35.4334 0.664393 0.730205
head 14.2824 0.11125 0.756077
rclavicle -5.91384e-015 2.26615e-014
rhumerus -25.8053 -13.9524 -80.3081
rradius 23.1961
rwrist 33.4507
rhand -18.9369 -26.5433
rfingers 7.12502
rthumb 7.36609 -56.395
lclavicle -5.91384e-015 2.26615e-014
lhumerus -24.3237 -5.77014 91.6856
lradius 18.1598
lwrist 10.3788
lhand -25.5527 -3.7732
lfingers 7.12502
lthumb 0.977775 26.2043
rfemur -18.3171 -1.09947 19.4541
rtibia 23.0629
rfoot -11.6875 -0.853646
rtoes 14.6624
lfemur -16.5781 6.96547 -17.4846
ltibia 19.8458
lfoot -8.67141 3.04436
ltoes 2.76489
554
root 0.344938 17.762 -2.98948 7.9737 -0.131319 -1.31694
lowerback 0.96169 -0.461017 -0.225947
upperback 3.36399 -0.651344 1.59867
thorax 2.93556 -0.355569 1.7588
lowerneck -12.8953 0.242876 -2.02442
upperneck 35.4031 0.656064 0.748577
head 14.2659 0.108218 0.765
rclavicle -7.10655e-015 1.15295e-014
rhumerus -25.8147 -13.9928 -80.2742
rradius 23.1878
rwrist 33.4593
rhand -18.9526 -26.5276
rfingers 7.12502
rthumb 7.35089 -56.3799
lclavicle -7.10655e-015 1.15295e-014
lhumerus -24.3203 -5.75548 91.683
lradius 18.1709
lwrist 10.3494
lhand -25.591 -3.81789
lfingers 7.12502
lthumb 0.940725 26.1598
rfemur -18.3031 -1.11047 19.4406
rtibia 23.0461
rfoot -11.6785 -0.859118
rtoes 14.6542
lfemur -16.5617 6.96365 -17.4971
ltibia 19.8196
lfoot -8.66554 3.02669
ltoes 2.7672
555
root 0.346378 17.7624 -2.99161 7.96524 -0.11737 -1.30822
lowerback 0.934244 -0.462311 -0.223976
upperback 3.36009 -0.653332 1.6033
thorax 2.94711 -0.356608 1.76222
lowerneck -12.8821 0.234629 -2.04348
upperneck 35.3741 0.641207 0.769919
head 14.2496 0.102534 0.774448
rclavicle 3.72721e-015 -1.59028e-015
rhumerus -25.826 -14.0393 -80.2401
rradius 23.1789
rwrist 33.4696
rhand -18.9701 -26.51
rfingers 7.12502
rthumb 7.33401 -56.3629
lclavicle 3.72721e-015 -1.59028e-015
lhumerus -24.3177 -5.7483 91.6814
lradius 18.1668
lwrist 10.2973
lhand -25.6236 -3.85433
lfingers 7.12502
lthumb 0.909235 26.1235
rfemur -18.291 -1.12305 19.426
rtibia 23.0305
rfoot -11.6697 -0.86404
rtoes 14.6536
lfemur -16.5455 6.95904 -17.511
ltibia 19.7897
lfoot -8.65596 3.00964
ltoes 2.76924
